<svg width="20" height="20" viewBox="0 0 20 20" fill="none" xmlns="http://www.w3.org/2000/svg">
<g id="ic_cart">
<path id="Vector" d="M3.75 18.3334C3.40625 18.3334 3.11198 18.211 2.86719 17.9662C2.6224 17.7214 2.5 17.4271 2.5 17.0834V6.04171C2.5 5.69796 2.6224 5.40369 2.86719 5.1589C3.11198 4.9141 3.40625 4.79171 3.75 4.79171H6.04167C6.04167 3.70837 6.41319 2.77782 7.15625 2.00004C7.89931 1.22226 8.8125 0.833374 9.89583 0.833374C11.0198 0.833374 11.9779 1.21532 12.7701 1.97921C13.5622 2.7431 13.9583 3.6806 13.9583 4.79171H16.25C16.5938 4.79171 16.888 4.9141 17.1328 5.1589C17.3776 5.40369 17.5 5.69796 17.5 6.04171V17.0834C17.5 17.4271 17.3776 17.7214 17.1328 17.9662C16.888 18.211 16.5938 18.3334 16.25 18.3334H3.75ZM3.75 17.0834H16.25V6.04171H3.75V17.0834ZM10 11.0417C11.0972 11.0417 12.0486 10.6389 12.8542 9.83337C13.6597 9.02782 14.0625 8.07643 14.0625 6.97921H12.8125C12.8125 7.7431 12.5347 8.40282 11.9792 8.95837C11.4236 9.51393 10.7639 9.79171 10 9.79171C9.23611 9.79171 8.57639 9.51393 8.02083 8.95837C7.46528 8.40282 7.1875 7.7431 7.1875 6.97921H5.9375C5.9375 8.07643 6.34028 9.02782 7.14583 9.83337C7.95139 10.6389 8.90278 11.0417 10 11.0417ZM7.29167 4.79171H12.7083C12.7083 4.02782 12.4479 3.38546 11.9271 2.86462C11.4062 2.34379 10.7639 2.08337 10 2.08337C9.23611 2.08337 8.59375 2.34379 8.07292 2.86462C7.55208 3.38546 7.29167 4.02782 7.29167 4.79171Z" fill="white"/>
</g>
</svg>
