<svg width="20" height="20" viewBox="0 0 20 20" fill="none" xmlns="http://www.w3.org/2000/svg">
<g id="ic_cart">
<path id="Vector" d="M3.75 18.3335C3.40625 18.3335 3.11198 18.2111 2.86719 17.9663C2.6224 17.7215 2.5 17.4272 2.5 17.0835V6.04183C2.5 5.69808 2.6224 5.40381 2.86719 5.15902C3.11198 4.91423 3.40625 4.79183 3.75 4.79183H6.04167C6.04167 3.7085 6.41319 2.77794 7.15625 2.00016C7.89931 1.22239 8.8125 0.833496 9.89583 0.833496C11.0198 0.833496 11.9779 1.21544 12.7701 1.97933C13.5622 2.74322 13.9583 3.68072 13.9583 4.79183H16.25C16.5938 4.79183 16.888 4.91423 17.1328 5.15902C17.3776 5.40381 17.5 5.69808 17.5 6.04183V17.0835C17.5 17.4272 17.3776 17.7215 17.1328 17.9663C16.888 18.2111 16.5938 18.3335 16.25 18.3335H3.75ZM3.75 17.0835H16.25V6.04183H3.75V17.0835ZM10 11.0418C11.0972 11.0418 12.0486 10.6391 12.8542 9.8335C13.6597 9.02794 14.0625 8.07655 14.0625 6.97933H12.8125C12.8125 7.74322 12.5347 8.40294 11.9792 8.9585C11.4236 9.51405 10.7639 9.79183 10 9.79183C9.23611 9.79183 8.57639 9.51405 8.02083 8.9585C7.46528 8.40294 7.1875 7.74322 7.1875 6.97933H5.9375C5.9375 8.07655 6.34028 9.02794 7.14583 9.8335C7.95139 10.6391 8.90278 11.0418 10 11.0418ZM7.29167 4.79183H12.7083C12.7083 4.02794 12.4479 3.38558 11.9271 2.86475C11.4062 2.34391 10.7639 2.0835 10 2.0835C9.23611 2.0835 8.59375 2.34391 8.07292 2.86475C7.55208 3.38558 7.29167 4.02794 7.29167 4.79183Z" fill="#283C1E"/>
</g>
</svg>
