<svg width="20" height="20" viewBox="0 0 20 20" fill="none" xmlns="http://www.w3.org/2000/svg">
<g id="ic_person">
<path id="Vector" d="M9.99998 9.97913C9.08331 9.97913 8.33331 9.68746 7.74998 9.10413C7.16665 8.52079 6.87498 7.77079 6.87498 6.85413C6.87498 5.93746 7.16665 5.18746 7.74998 4.60413C8.33331 4.02079 9.08331 3.72913 9.99998 3.72913C10.9166 3.72913 11.6666 4.02079 12.25 4.60413C12.8333 5.18746 13.125 5.93746 13.125 6.85413C13.125 7.77079 12.8333 8.52079 12.25 9.10413C11.6666 9.68746 10.9166 9.97913 9.99998 9.97913ZM3.33331 16.6666V14.7083C3.33331 14.1805 3.46526 13.7291 3.72915 13.3541C3.99304 12.9791 4.33331 12.6944 4.74998 12.5C5.68054 12.0833 6.5729 11.7708 7.42706 11.5625C8.28123 11.3541 9.13887 11.25 9.99998 11.25C10.8611 11.25 11.7153 11.3576 12.5625 11.5729C13.4097 11.7882 14.298 12.0985 15.2275 12.504C15.6622 12.7002 16.0108 12.9847 16.2731 13.3575C16.5355 13.7302 16.6666 14.1805 16.6666 14.7083V16.6666H3.33331ZM4.58331 15.4166H15.4166V14.7083C15.4166 14.4861 15.3507 14.2743 15.2187 14.0729C15.0868 13.8715 14.9236 13.7222 14.7291 13.625C13.8403 13.1944 13.0278 12.8993 12.2916 12.7395C11.5555 12.5798 10.7916 12.5 9.99998 12.5C9.20831 12.5 8.43748 12.5798 7.68748 12.7395C6.93748 12.8993 6.12498 13.1944 5.24998 13.625C5.05554 13.7222 4.89581 13.8715 4.77081 14.0729C4.64581 14.2743 4.58331 14.4861 4.58331 14.7083V15.4166ZM9.99998 8.72913C10.5416 8.72913 10.9896 8.55204 11.3437 8.19788C11.6979 7.84371 11.875 7.39579 11.875 6.85413C11.875 6.31246 11.6979 5.86454 11.3437 5.51038C10.9896 5.15621 10.5416 4.97913 9.99998 4.97913C9.45831 4.97913 9.0104 5.15621 8.65623 5.51038C8.30206 5.86454 8.12498 6.31246 8.12498 6.85413C8.12498 7.39579 8.30206 7.84371 8.65623 8.19788C9.0104 8.55204 9.45831 8.72913 9.99998 8.72913Z" fill="white"/>
</g>
</svg>
