<svg width="20" height="20" viewBox="0 0 20 20" fill="none" xmlns="http://www.w3.org/2000/svg">
<g id="ic_person">
<path id="Vector" d="M10.0002 9.979C9.0835 9.979 8.3335 9.68734 7.75016 9.104C7.16683 8.52067 6.87516 7.77067 6.87516 6.854C6.87516 5.93734 7.16683 5.18734 7.75016 4.604C8.3335 4.02067 9.0835 3.729 10.0002 3.729C10.9168 3.729 11.6668 4.02067 12.2502 4.604C12.8335 5.18734 13.1252 5.93734 13.1252 6.854C13.1252 7.77067 12.8335 8.52067 12.2502 9.104C11.6668 9.68734 10.9168 9.979 10.0002 9.979ZM3.3335 16.6665V14.7082C3.3335 14.1804 3.46544 13.729 3.72933 13.354C3.99322 12.979 4.3335 12.6943 4.75016 12.4998C5.68072 12.0832 6.57308 11.7707 7.42725 11.5623C8.28141 11.354 9.13905 11.2498 10.0002 11.2498C10.8613 11.2498 11.7154 11.3575 12.5627 11.5728C13.4099 11.788 14.2982 12.0984 15.2277 12.5039C15.6624 12.7001 16.011 12.9846 16.2733 13.3573C16.5357 13.7301 16.6668 14.1804 16.6668 14.7082V16.6665H3.3335ZM4.5835 15.4165H15.4168V14.7082C15.4168 14.4859 15.3509 14.2741 15.2189 14.0728C15.087 13.8714 14.9238 13.7221 14.7293 13.6248C13.8404 13.1943 13.0279 12.8991 12.2918 12.7394C11.5557 12.5797 10.7918 12.4998 10.0002 12.4998C9.2085 12.4998 8.43766 12.5797 7.68766 12.7394C6.93766 12.8991 6.12516 13.1943 5.25016 13.6248C5.05572 13.7221 4.896 13.8714 4.771 14.0728C4.646 14.2741 4.5835 14.4859 4.5835 14.7082V15.4165ZM10.0002 8.729C10.5418 8.729 10.9897 8.55192 11.3439 8.19775C11.6981 7.84359 11.8752 7.39567 11.8752 6.854C11.8752 6.31234 11.6981 5.86442 11.3439 5.51025C10.9897 5.15609 10.5418 4.979 10.0002 4.979C9.4585 4.979 9.01058 5.15609 8.65641 5.51025C8.30225 5.86442 8.12516 6.31234 8.12516 6.854C8.12516 7.39567 8.30225 7.84359 8.65641 8.19775C9.01058 8.55192 9.4585 8.729 10.0002 8.729Z" fill="#283C1E"/>
</g>
</svg>
