<svg width="20" height="20" viewBox="0 0 20 20" fill="none" xmlns="http://www.w3.org/2000/svg">
<g id="ic_search">
<path id="Vector" d="M16.5833 17.479L11.1042 11.9998C10.6875 12.3609 10.2017 12.6422 9.64669 12.8436C9.0917 13.045 8.50114 13.1457 7.875 13.1457C6.37275 13.1457 5.10135 12.6248 4.06081 11.5832C3.02027 10.5415 2.5 9.28456 2.5 7.81234C2.5 6.34012 3.02083 5.08317 4.0625 4.0415C5.10417 2.99984 6.36458 2.479 7.84375 2.479C9.32292 2.479 10.5799 2.99984 11.6146 4.0415C12.6493 5.08317 13.1667 6.34116 13.1667 7.81546C13.1667 8.4106 13.0694 8.98595 12.875 9.5415C12.6806 10.0971 12.3889 10.6179 12 11.104L17.5 16.5623L16.5833 17.479ZM7.85417 11.8957C8.98264 11.8957 9.94184 11.4964 10.7318 10.6978C11.5217 9.89914 11.9167 8.93734 11.9167 7.81234C11.9167 6.68734 11.5217 5.72553 10.7318 4.92692C9.94184 4.12831 8.98264 3.729 7.85417 3.729C6.71413 3.729 5.74508 4.12831 4.94704 4.92692C4.14901 5.72553 3.75 6.68734 3.75 7.81234C3.75 8.93734 4.14901 9.89914 4.94704 10.6978C5.74508 11.4964 6.71413 11.8957 7.85417 11.8957Z" fill="#666666"/>
</g>
</svg>
