<svg width="12" height="13" viewBox="0 0 12 13" fill="none" xmlns="http://www.w3.org/2000/svg">
<g id="ic_star">
<path id="Vector" fill-rule="evenodd" clip-rule="evenodd" d="M5.99992 9.53568L2.73742 11.2172C2.71272 11.2299 2.68497 11.2355 2.65727 11.2334C2.62957 11.2313 2.60301 11.2215 2.58053 11.2052C2.55806 11.1889 2.54056 11.1666 2.52999 11.1409C2.51942 11.1152 2.51619 11.0871 2.52067 11.0597L3.11316 7.43718L0.504665 4.85568C0.484537 4.83637 0.470256 4.81177 0.463459 4.78472C0.456663 4.75766 0.457624 4.72924 0.466234 4.7027C0.474844 4.67617 0.490755 4.6526 0.512143 4.63469C0.53353 4.61678 0.559531 4.60525 0.587165 4.60143L4.21491 4.04418L5.86491 0.766684C5.87736 0.741723 5.89651 0.720724 5.92022 0.706047C5.94394 0.691369 5.97128 0.683594 5.99917 0.683594C6.02705 0.683594 6.05439 0.691369 6.07811 0.706047C6.10182 0.720724 6.12098 0.741723 6.13342 0.766684L7.78341 4.04418L11.4112 4.60143C11.4386 4.60552 11.4644 4.61719 11.4856 4.63513C11.5068 4.65307 11.5226 4.67658 11.5312 4.703C11.5398 4.72942 11.5408 4.75771 11.5342 4.78468C11.5275 4.81166 11.5135 4.83625 11.4937 4.85568L8.88741 7.43793L9.47841 11.0604C9.48273 11.0878 9.47938 11.1158 9.46874 11.1414C9.4581 11.167 9.44059 11.1891 9.41814 11.2053C9.3957 11.2216 9.3692 11.2313 9.34158 11.2333C9.31396 11.2354 9.2863 11.2298 9.26166 11.2172L5.99992 9.53568Z" fill="#FFD246"/>
</g>
</svg>
