<svg width="20" height="20" viewBox="0 0 20 20" fill="none" xmlns="http://www.w3.org/2000/svg">
<g id="img_ig">
<path id="Vector" fill-rule="evenodd" clip-rule="evenodd" d="M10.0625 2C7.771 2 7.4837 2.0097 6.5837 2.0508C5.6857 2.0917 5.0723 2.2344 4.5356 2.443C3.9808 2.6586 3.5102 2.9471 3.0411 3.4161C2.5721 3.8852 2.2836 4.3558 2.068 4.9106C1.8594 5.4473 1.7167 6.0607 1.6758 6.9587C1.6347 7.8587 1.625 8.146 1.625 10.4375C1.625 12.729 1.6347 13.0163 1.6758 13.9163C1.7167 14.8143 1.8594 15.4277 2.068 15.9644C2.2836 16.5192 2.5721 16.9898 3.0411 17.4589C3.5102 17.9279 3.9808 18.2164 4.5356 18.4321C5.0723 18.6406 5.6857 18.7833 6.5837 18.8242C7.4837 18.8653 7.771 18.875 10.0625 18.875C12.354 18.875 12.6413 18.8653 13.5413 18.8242C14.4393 18.7833 15.0527 18.6406 15.5894 18.4321C16.1442 18.2164 16.6148 17.9279 17.0839 17.4589C17.5529 16.9898 17.8414 16.5192 18.0571 15.9644C18.2656 15.4277 18.4083 14.8143 18.4492 13.9163C18.4903 13.0163 18.5 12.729 18.5 10.4375C18.5 8.146 18.4903 7.8587 18.4492 6.9587C18.4083 6.0607 18.2656 5.4473 18.0571 4.9106C17.8414 4.3558 17.5529 3.8852 17.0839 3.4161C16.6148 2.9471 16.1442 2.6586 15.5894 2.443C15.0527 2.2344 14.4393 2.0917 13.5413 2.0508C12.6413 2.0097 12.354 2 10.0625 2ZM10.0625 3.5203C12.3154 3.5203 12.5823 3.5289 13.472 3.5695C14.2946 3.607 14.7414 3.7444 15.0387 3.86C15.4325 4.013 15.7136 4.1959 16.0088 4.4912C16.3041 4.7864 16.487 5.0675 16.64 5.4613C16.7556 5.7586 16.893 6.2054 16.9305 7.028C16.9711 7.9177 16.9797 8.1846 16.9797 10.4375C16.9797 12.6904 16.9711 12.9573 16.9305 13.847C16.893 14.6696 16.7556 15.1164 16.64 15.4137C16.487 15.8075 16.3041 16.0886 16.0088 16.3838C15.7136 16.6791 15.4325 16.862 15.0387 17.015C14.7414 17.1306 14.2946 17.268 13.472 17.3055C12.5824 17.3461 12.3156 17.3547 10.0625 17.3547C7.8094 17.3547 7.5426 17.3461 6.653 17.3055C5.8304 17.268 5.3836 17.1306 5.0863 17.015C4.6925 16.862 4.4114 16.6791 4.1162 16.3838C3.8209 16.0886 3.638 15.8075 3.485 15.4137C3.3694 15.1164 3.232 14.6696 3.1945 13.847C3.1539 12.9573 3.1453 12.6904 3.1453 10.4375C3.1453 8.1846 3.1539 7.9177 3.1945 7.028C3.232 6.2054 3.3694 5.7586 3.485 5.4613C3.638 5.0675 3.8209 4.7864 4.1162 4.4912C4.4114 4.1959 4.6925 4.013 5.0863 3.86C5.3836 3.7444 5.8304 3.607 6.653 3.5695C7.5427 3.5289 7.8096 3.5203 10.0625 3.5203ZM10.0625 6.1047C7.6696 6.1047 5.7297 8.0446 5.7297 10.4375C5.7297 12.8304 7.6696 14.7703 10.0625 14.7703C12.4554 14.7703 14.3953 12.8304 14.3953 10.4375C14.3953 8.0446 12.4554 6.1047 10.0625 6.1047ZM10.0625 13.25C8.5092 13.25 7.25 11.9908 7.25 10.4375C7.25 8.8842 8.5092 7.625 10.0625 7.625C11.6158 7.625 12.875 8.8842 12.875 10.4375C12.875 11.9908 11.6158 13.25 10.0625 13.25ZM15.579 5.9336C15.579 5.3744 15.1256 4.921 14.5664 4.921C14.0073 4.921 13.554 5.3744 13.554 5.9336C13.554 6.4927 14.0073 6.946 14.5664 6.946C15.1256 6.946 15.579 6.4927 15.579 5.9336Z" fill="#566B5A"/>
</g>
</svg>
