<svg width="40" height="40" viewBox="0 0 40 40" fill="none" xmlns="http://www.w3.org/2000/svg">
<g id="img_line" clip-path="url(#clip0_2342_4058)">
<path id="bg" opacity="0.7" d="M39.5 20C39.5 30.7696 30.7696 39.5 20 39.5C9.23045 39.5 0.5 30.7696 0.5 20C0.5 9.23045 9.23045 0.5 20 0.5C30.7696 0.5 39.5 9.23045 39.5 20Z" stroke="#D5D5D5"/>
<path id="Vector" fill-rule="evenodd" clip-rule="evenodd" d="M29 19.0263C29 15.152 24.9625 12 20 12C15.0377 12 11 15.152 11 19.0263C11 22.4994 14.2019 25.4086 18.527 25.9589C18.8199 26.0196 19.2188 26.1451 19.3198 26.386C19.4106 26.6047 19.3793 26.9474 19.3488 27.1685C19.3488 27.1685 19.2436 27.7796 19.2204 27.91C19.1814 28.1288 19.0395 28.7659 20 28.3767C20.9608 27.9874 25.1828 25.4404 27.071 23.3494C28.3754 21.9736 29 20.577 29 19.0263ZM14.4146 21.1339C14.1861 21.1339 14 20.9408 14 20.703V17.4397C14 17.2022 14.2116 17.0089 14.48 17.0089C14.7484 17.0089 14.9 17.2006 14.9 17.4397V20.2724H15.9854C16.2143 20.2724 16.4 20.4657 16.4 20.703C16.4 20.9408 16.2143 21.1339 15.9854 21.1339H14.4146ZM18.2 20.703C18.2 20.9408 17.9981 21.1339 17.7501 21.1339C17.5019 21.1339 17.3 20.9408 17.3 20.703V17.4397C17.3 17.2022 17.5019 17.0089 17.7501 17.0089C17.9981 17.0089 18.2 17.2022 18.2 17.4397V20.703ZM22.7 20.703C22.7 20.889 22.5717 21.0532 22.3797 21.1116C22.3316 21.1265 22.2813 21.1339 22.2309 21.1339C22.0849 21.1339 21.9449 21.0696 21.8566 20.9616L20.0372 18.6842V20.703C20.0372 20.9408 19.8272 21.1339 19.5687 21.1339C19.3103 21.1339 19.1 20.9408 19.1 20.703V17.4397C19.1 17.2541 19.2288 17.0899 19.4203 17.0312C19.4686 17.0162 19.5187 17.0089 19.5691 17.0089C19.7153 17.0089 19.8554 17.0731 19.9431 17.1812L21.7631 19.4587V17.4397C21.7631 17.2022 21.9735 17.0089 22.2316 17.0089C22.4902 17.0089 22.7 17.2022 22.7 17.4397V20.703ZM25.5853 18.6407C25.8142 18.6407 26 18.8339 26 19.0715C26 19.3088 25.8142 19.502 25.5853 19.502H24.4294V20.2724H25.5853C25.8138 20.2724 26 20.4657 26 20.703C26 20.9408 25.8138 21.1339 25.5853 21.1339H24.0145C23.7863 21.1339 23.6 20.9408 23.6 20.703V19.0726V19.0715V17.4397C23.6 17.2022 23.7859 17.0089 24.0145 17.0089H25.5853C25.8142 17.0089 26 17.2022 26 17.4397C26 17.6772 25.8142 17.8702 25.5853 17.8702H24.4294V18.6407H25.5853Z" fill="#D5D5D5"/>
</g>
<defs>
<clipPath id="clip0_2342_4058">
<rect width="40" height="40" fill="white"/>
</clipPath>
</defs>
</svg>
