<svg width="80" height="48" viewBox="0 0 80 48" fill="none" xmlns="http://www.w3.org/2000/svg">
<g id="img_mark">
<g id="img_mark_2" opacity="0.25">
<path id="Layer 2" fill-rule="evenodd" clip-rule="evenodd" d="M52.9651 47.005C60.602 44.8279 66.4735 40.1287 70.3784 33.0699C73.1703 28.0238 74.5981 23.5536 77.6019 10.4571L80 0L66.9658 -1.13949e-06C59.7971 -1.76619e-06 53.9315 0.139883 53.9315 0.310629C53.9315 0.775541 49.3849 20.0421 48.9475 21.4286C48.6101 22.501 49.2181 22.6286 54.6831 22.6286C61.4978 22.6286 61.261 22.3275 58.7547 27.8002C56.7181 32.2485 50.5445 37.0286 46.8365 37.0286C46.203 37.0286 45.4875 37.8693 45.2305 38.9143C44.9758 39.9511 44.464 41.88 44.0935 43.2C42.8565 47.6016 43.0699 48.0048 46.6043 47.9541C48.3613 47.9287 51.2231 47.5022 52.9651 47.005ZM10.8594 46.7266C20.6313 43.6457 26.4435 37.5285 30.5009 26.0571C31.8762 22.1698 36.6468 2.45073 36.6468 0.655533C36.6468 0.263992 31.5042 -4.23964e-06 23.8853 -4.9057e-06C11.2674 -6.00879e-06 11.1194 0.0171372 10.7354 1.54285C10.0703 4.18079 5.83475 22.2 5.83475 22.3913C5.83475 22.4914 8.52367 22.6629 11.8108 22.7726L17.7861 22.9714L15.9719 27.0857C13.8925 31.8021 10.2401 35.1182 5.5612 36.5383C2.45821 37.4798 2.45068 37.4907 1.22647 42.7406L0 48L3.48101 47.9774C5.39586 47.965 8.71605 47.4021 10.8594 46.7266Z" fill="white"/>
</g>
</g>
</svg>
