<svg xmlns="http://www.w3.org/2000/svg" width="30" height="30" data-name="line messenger" viewBox="0 0 100 100" id="line-messenger"><path fill="#3ace01" fill-rule="evenodd" d="M20.467,0H79.533A20.527,20.527,0,0,1,100,20.467V79.533A20.527,20.527,0,0,1,79.533,100H20.467A20.526,20.526,0,0,1,0,79.533V20.467A20.527,20.527,0,0,1,20.467,0Z" data-name="Path 6"></path><path fill="#fff" fill-rule="evenodd" d="M86.611,62.576c20.262,0,36.688,13.153,36.688,29.378a25.107,25.107,0,0,1-5.477,15.446,7.6,7.6,0,0,1-.679.849l-.021.023a31.81,31.81,0,0,1-3.99,3.981c-10.146,9.378-26.845,20.542-29.049,18.82-1.916-1.5,3.156-8.821-2.7-10.039-.408-.047-.815-.1-1.219-.154h-.008c-17.186-2.441-30.236-14.463-30.236-28.925,0-16.225,16.425-29.378,36.688-29.378Z" data-name="Path 7" transform="translate(-36.708 -46.011)"></path><path fill="#3ace01" fill-rule="evenodd" d="M102.788,158.905h7.4a1.919,1.919,0,0,0,1.913-1.914v-.16a1.919,1.919,0,0,0-1.913-1.913h-5.326V142.8a1.919,1.919,0,0,0-1.913-1.913h-.16a1.919,1.919,0,0,0-1.913,1.913v14.191A1.919,1.919,0,0,0,102.788,158.905Zm45.85-8.9v-.16a1.919,1.919,0,0,0-1.914-1.913H141.4v-3.03h5.326a1.919,1.919,0,0,0,1.914-1.913v-.16a1.919,1.919,0,0,0-1.914-1.913h-7.4a1.919,1.919,0,0,0-1.913,1.913v14.191a1.919,1.919,0,0,0,1.913,1.914h7.4a1.919,1.919,0,0,0,1.914-1.914v-.16a1.919,1.919,0,0,0-1.914-1.913H141.4v-3.03h5.326a1.918,1.918,0,0,0,1.914-1.913Zm-14.23,8.325h0a1.908,1.908,0,0,0,.553-1.342V142.8a1.919,1.919,0,0,0-1.914-1.913h-.16a1.919,1.919,0,0,0-1.913,1.913v8.33l-6.916-9.276a1.917,1.917,0,0,0-1.661-.968h-.16a1.919,1.919,0,0,0-1.914,1.913v14.191a1.919,1.919,0,0,0,1.914,1.914h.16a1.919,1.919,0,0,0,1.913-1.914v-8.486l6.966,9.514a1.956,1.956,0,0,0,.14.192h0a1.606,1.606,0,0,0,.745.549,1.9,1.9,0,0,0,.726.144h.16a1.9,1.9,0,0,0,.894-.223,1.346,1.346,0,0,0,.466-.347Zm-18.85.57h.16a1.919,1.919,0,0,0,1.913-1.914V142.8a1.919,1.919,0,0,0-1.913-1.913h-.16a1.919,1.919,0,0,0-1.914,1.913v14.191a1.919,1.919,0,0,0,1.914,1.914Z" data-name="Path 8" transform="translate(-74.172 -103.592)"></path></svg>