<svg
                    xmlns="http://www.w3.org/2000/svg"
                    width="40"
                    height="40"
                    viewBox="0 0 40 40"
                    fill="none"
                  >
                    <g clip-path="url(#clip0_2342_4061)">
                      <path
                        opacity="0.7"
                        d="M39.5 20C39.5 30.7696 30.7696 39.5 20 39.5C9.23045 39.5 0.5 30.7696 0.5 20C0.5 9.23045 9.23045 0.5 20 0.5C30.7696 0.5 39.5 9.23045 39.5 20Z"
                        stroke="none"
                      />
                      <path
                        fill-rule="evenodd"
                        clip-rule="evenodd"
                        d="M21.5983 20.9736H24.1413L24.5219 18.0404H21.5983V16.1677C21.5983 15.3184 21.8357 14.7397 23.0615 14.7397L24.625 14.739V12.1156C24.3545 12.0799 23.4265 12 22.3467 12C20.0926 12 18.5494 13.3669 18.5494 15.8773V18.0404H16V20.9736H18.5494V28.5H21.5983V20.9736Z"
                        fill="#D5D5D5"
                      />
                    </g>
                    <defs>
                      <clipPath id="clip0_2342_4061">
                        <rect width="40" height="40" fill="white" />
                      </clipPath>
                    </defs>
                  </svg>