 <svg
                    xmlns="http://www.w3.org/2000/svg"
                    width="40"
                    height="40"
                    viewBox="0 0 40 40"
                    fill="none"
                  >
                    <g clip-path="url(#clip0_2342_4064)">
                      <path
                        opacity="0.7"
                        d="M39.5 20C39.5 30.7696 30.7696 39.5 20 39.5C9.23045 39.5 0.5 30.7696 0.5 20C0.5 9.23045 9.23045 0.5 20 0.5C30.7696 0.5 39.5 9.23045 39.5 20Z"
                        stroke="none"
                      />
                      <path
                        fill-rule="evenodd"
                        clip-rule="evenodd"
                        d="M20.0625 12C17.771 12 17.4837 12.0097 16.5837 12.0508C15.6857 12.0917 15.0723 12.2344 14.5356 12.443C13.9808 12.6586 13.5102 12.9471 13.0411 13.4161C12.5721 13.8852 12.2836 14.3558 12.068 14.9106C11.8594 15.4473 11.7167 16.0607 11.6758 16.9587C11.6347 17.8587 11.625 18.146 11.625 20.4375C11.625 22.729 11.6347 23.0163 11.6758 23.9163C11.7167 24.8143 11.8594 25.4277 12.068 25.9644C12.2836 26.5192 12.5721 26.9898 13.0411 27.4589C13.5102 27.9279 13.9808 28.2164 14.5356 28.4321C15.0723 28.6406 15.6857 28.7833 16.5837 28.8242C17.4837 28.8653 17.771 28.875 20.0625 28.875C22.354 28.875 22.6413 28.8653 23.5413 28.8242C24.4393 28.7833 25.0527 28.6406 25.5894 28.4321C26.1442 28.2164 26.6148 27.9279 27.0839 27.4589C27.5529 26.9898 27.8414 26.5192 28.0571 25.9644C28.2656 25.4277 28.4083 24.8143 28.4492 23.9163C28.4903 23.0163 28.5 22.729 28.5 20.4375C28.5 18.146 28.4903 17.8587 28.4492 16.9587C28.4083 16.0607 28.2656 15.4473 28.0571 14.9106C27.8414 14.3558 27.5529 13.8852 27.0839 13.4161C26.6148 12.9471 26.1442 12.6586 25.5894 12.443C25.0527 12.2344 24.4393 12.0917 23.5413 12.0508C22.6413 12.0097 22.354 12 20.0625 12ZM20.0625 13.5203C22.3154 13.5203 22.5823 13.5289 23.472 13.5695C24.2946 13.607 24.7414 13.7444 25.0387 13.86C25.4325 14.013 25.7136 14.1959 26.0088 14.4912C26.3041 14.7864 26.487 15.0675 26.64 15.4613C26.7556 15.7586 26.893 16.2054 26.9305 17.028C26.9711 17.9177 26.9797 18.1846 26.9797 20.4375C26.9797 22.6904 26.9711 22.9573 26.9305 23.847C26.893 24.6696 26.7556 25.1164 26.64 25.4137C26.487 25.8075 26.3041 26.0886 26.0088 26.3838C25.7136 26.6791 25.4325 26.862 25.0387 27.015C24.7414 27.1306 24.2946 27.268 23.472 27.3055C22.5824 27.3461 22.3156 27.3547 20.0625 27.3547C17.8094 27.3547 17.5426 27.3461 16.653 27.3055C15.8304 27.268 15.3836 27.1306 15.0863 27.015C14.6925 26.862 14.4114 26.6791 14.1162 26.3838C13.8209 26.0886 13.638 25.8075 13.485 25.4137C13.3694 25.1164 13.232 24.6696 13.1945 23.847C13.1539 22.9573 13.1453 22.6904 13.1453 20.4375C13.1453 18.1846 13.1539 17.9177 13.1945 17.028C13.232 16.2054 13.3694 15.7586 13.485 15.4613C13.638 15.0675 13.8209 14.7864 14.1162 14.4912C14.4114 14.1959 14.6925 14.013 15.0863 13.86C15.3836 13.7444 15.8304 13.607 16.653 13.5695C17.5427 13.5289 17.8096 13.5203 20.0625 13.5203ZM20.0625 16.1047C17.6696 16.1047 15.7297 18.0446 15.7297 20.4375C15.7297 22.8304 17.6696 24.7703 20.0625 24.7703C22.4554 24.7703 24.3953 22.8304 24.3953 20.4375C24.3953 18.0446 22.4554 16.1047 20.0625 16.1047ZM20.0625 23.25C18.5092 23.25 17.25 21.9908 17.25 20.4375C17.25 18.8842 18.5092 17.625 20.0625 17.625C21.6158 17.625 22.875 18.8842 22.875 20.4375C22.875 21.9908 21.6158 23.25 20.0625 23.25ZM25.579 15.9336C25.579 15.3744 25.1256 14.921 24.5664 14.921C24.0073 14.921 23.554 15.3744 23.554 15.9336C23.554 16.4927 24.0073 16.946 24.5664 16.946C25.1256 16.946 25.579 16.4927 25.579 15.9336Z"
                        fill="#D5D5D5"
                      />
                    </g>
                    <defs>
                      <clipPath id="clip0_2342_4064">
                        <rect width="40" height="40" fill="white" />
                      </clipPath>
                    </defs>
                  </svg>