<svg
              xmlns="http://www.w3.org/2000/svg"
              width="48"
              height="48"
              viewBox="0 0 48 48"
              fill="none"
            >
              <g clip-path="url(#clip0_2321_3123)">
                <path
                  fill-rule="evenodd"
                  clip-rule="evenodd"
                  d="M33 23.0263C33 19.152 28.9625 16 24 16C19.0377 16 15 19.152 15 23.0263C15 26.4994 18.2019 29.4086 22.527 29.9589C22.8199 30.0196 23.2188 30.1451 23.3198 30.386C23.4106 30.6047 23.3793 30.9474 23.3488 31.1685C23.3488 31.1685 23.2436 31.7796 23.2204 31.91C23.1814 32.1288 23.0395 32.7659 24 32.3767C24.9608 31.9874 29.1828 29.4404 31.071 27.3494C32.3754 25.9736 33 24.577 33 23.0263ZM18.4146 25.1339C18.1861 25.1339 18 24.9408 18 24.703V21.4397C18 21.2022 18.2116 21.0089 18.48 21.0089C18.7484 21.0089 18.9 21.2006 18.9 21.4397V24.2724H19.9854C20.2143 24.2724 20.4 24.4657 20.4 24.703C20.4 24.9408 20.2143 25.1339 19.9854 25.1339H18.4146ZM22.2 24.703C22.2 24.9408 21.9981 25.1339 21.7501 25.1339C21.5019 25.1339 21.3 24.9408 21.3 24.703V21.4397C21.3 21.2022 21.5019 21.0089 21.7501 21.0089C21.9981 21.0089 22.2 21.2022 22.2 21.4397V24.703ZM26.7 24.703C26.7 24.889 26.5717 25.0532 26.3797 25.1116C26.3316 25.1265 26.2813 25.1339 26.2309 25.1339C26.0849 25.1339 25.9449 25.0696 25.8566 24.9616L24.0372 22.6842V24.703C24.0372 24.9408 23.8272 25.1339 23.5687 25.1339C23.3103 25.1339 23.1 24.9408 23.1 24.703V21.4397C23.1 21.2541 23.2288 21.0899 23.4203 21.0312C23.4686 21.0162 23.5187 21.0089 23.5691 21.0089C23.7153 21.0089 23.8554 21.0731 23.9431 21.1812L25.7631 23.4587V21.4397C25.7631 21.2022 25.9735 21.0089 26.2316 21.0089C26.4902 21.0089 26.7 21.2022 26.7 21.4397V24.703ZM29.5853 22.6407C29.8142 22.6407 30 22.8339 30 23.0715C30 23.3088 29.8142 23.502 29.5853 23.502H28.4294V24.2724H29.5853C29.8138 24.2724 30 24.4657 30 24.703C30 24.9408 29.8138 25.1339 29.5853 25.1339H28.0145C27.7863 25.1339 27.6 24.9408 27.6 24.703V23.0726V23.0715V21.4397C27.6 21.2022 27.7859 21.0089 28.0145 21.0089H29.5853C29.8142 21.0089 30 21.2022 30 21.4397C30 21.6772 29.8142 21.8702 29.5853 21.8702H28.4294V22.6407H29.5853Z"
                  fill="#566B5A"
                />
              </g>
              <defs>
                <clipPath id="clip0_2321_3123">
                  <rect width="48" height="48" fill="white" />
                </clipPath>
              </defs>
            </svg>